<?xml version="1.0" standalone="no"?>
<!DOCTYPE svg PUBLIC "-//W3C//DTD SVG 20010904//EN"
 "http://www.w3.org/TR/2001/REC-SVG-20010904/DTD/svg10.dtd">
<svg version="1.0" xmlns="http://www.w3.org/2000/svg"
 width="500.000000pt" height="500.000000pt" viewBox="0 0 500.000000 500.000000"
 preserveAspectRatio="xMidYMid meet">

<g transform="translate(0.000000,500.000000) scale(0.100000,-0.100000)"
fill="#000000" stroke="none">
<path d="M2260 3875 c-394 -75 -712 -283 -921 -604 l-64 -99 -60 0 c-51 -1
-115 -14 -115 -24 0 -2 31 -3 69 -3 38 0 73 -3 77 -7 4 -4 -5 -35 -20 -69 -16
-33 -38 -90 -50 -126 l-22 -65 -28 37 c-16 21 -51 47 -80 61 -48 23 -61 24
-251 24 -176 -1 -196 -2 -169 -14 53 -24 55 -37 52 -443 -3 -349 -4 -372 -22
-392 -11 -12 -33 -25 -50 -30 -22 -7 10 -9 109 -9 102 0 131 2 108 9 -64 19
-63 12 -63 451 l0 398 90 0 c54 0 104 -6 123 -14 78 -32 121 -138 99 -245 -20
-98 -98 -151 -221 -151 l-54 0 27 -21 c15 -12 91 -92 169 -179 l142 -157 29
-102 c16 -56 55 -155 87 -220 183 -372 511 -634 923 -738 182 -45 470 -44 666
4 88 22 270 96 353 143 197 114 393 308 509 503 l26 45 54 -10 c72 -14 279 -4
353 16 84 23 196 81 236 123 l34 35 -50 -31 c-96 -61 -169 -76 -360 -76 -188
0 -230 6 -221 33 3 9 22 67 43 127 20 61 38 111 38 113 1 1 26 -8 56 -21 153
-67 347 -68 480 -1 95 47 176 159 198 271 14 72 19 153 10 153 -5 0 -9 -20 -9
-44 0 -138 -96 -289 -225 -354 -137 -68 -356 -49 -459 41 l-37 32 12 75 c15
99 6 350 -16 459 l-18 85 34 29 c174 148 464 114 570 -67 l30 -51 -6 70 c-4
39 -11 77 -16 86 -4 9 -32 26 -61 38 -179 71 -362 68 -512 -10 -32 -16 -59
-29 -60 -27 -1 2 -17 41 -35 88 -161 411 -513 719 -948 832 -108 28 -134 31
-313 34 -140 2 -216 -1 -270 -11z m450 -76 c105 -15 278 -73 390 -130 173 -89
358 -249 473 -411 59 -82 138 -235 167 -323 l22 -65 -38 -57 c-50 -76 -74
-157 -74 -253 0 -122 27 -193 125 -326 6 -8 4 -31 -4 -66 -19 -74 -83 -238
-94 -238 -5 0 -87 23 -181 51 -93 28 -220 63 -281 79 -60 16 -103 30 -95 33
196 56 307 148 359 297 99 282 -72 567 -374 625 -96 19 -151 19 -240 0 -248
-52 -395 -238 -383 -482 9 -191 119 -321 301 -354 140 -26 262 38 291 151 5
17 0 14 -14 -12 -38 -70 -112 -108 -209 -108 -280 1 -381 438 -154 665 27 27
77 62 113 79 61 29 72 31 180 31 103 0 121 -3 171 -26 110 -52 201 -162 234
-283 24 -88 17 -247 -14 -328 -48 -125 -171 -216 -324 -240 l-77 -12 77 -22
c115 -33 564 -202 580 -218 11 -10 -103 -170 -180 -252 -206 -220 -475 -360
-778 -405 -116 -17 -370 -6 -474 20 -256 63 -446 170 -633 354 -109 108 -194
228 -262 370 -28 56 -50 106 -50 110 0 5 24 -12 52 -38 71 -64 122 -95 191
-117 59 -18 141 -22 187 -9 20 6 14 9 -31 13 -98 11 -168 55 -316 200 l-132
130 -12 72 c-20 117 -16 334 10 454 22 105 62 227 98 296 l20 38 36 -32 c20
-17 59 -60 87 -95 l50 -63 0 -357 c0 -330 -3 -377 -26 -403 -1 -2 -20 -10 -41
-17 -35 -13 -29 -14 97 -14 93 1 124 4 100 9 -19 5 -45 20 -57 35 -23 26 -23
28 -23 358 l0 332 34 -35 c18 -19 179 -197 358 -395 178 -198 348 -381 377
-407 93 -84 204 -120 315 -104 53 8 63 24 12 18 -48 -6 -135 22 -192 61 -27
19 -84 73 -126 121 l-78 88 0 373 c0 358 1 373 20 398 11 14 30 28 43 30 12 2
-27 5 -88 5 -103 1 -108 0 -77 -13 18 -8 37 -26 42 -41 6 -16 9 -153 8 -357
l-3 -331 -351 389 c-368 408 -395 437 -456 477 l-38 25 49 74 c151 229 373
409 620 504 225 86 440 109 691 74z m1093 -1269 c1 -110 -2 -176 -8 -177 -18
-3 -47 91 -52 172 -5 79 4 151 28 210 l12 30 9 -30 c5 -16 11 -109 11 -205z
m-2693 -61 l0 -120 -56 60 c-31 34 -65 72 -75 86 l-20 24 44 11 c24 7 57 22
73 35 16 14 30 24 32 25 1 0 2 -54 2 -121z"/>
</g>
</svg>
